<svg width="1129.3137939453125px" height="139.02125549316406px" xmlns="http://www.w3.org/2000/svg" viewBox="-314.6568969726562 5.489372253417969 1129.3137939453125 139.02125549316406" style="background: rgba(89, 104, 134, 0);" preserveAspectRatio="xMidYMid"><defs><filter id="editing-hover" x="-100%" y="-100%" width="300%" height="300%"><feFlood flood-color="#000000" result="flood"></feFlood><feComposite operator="in" in2="SourceAlpha" in="flood" result="shadow"></feComposite><feOffset dx="0.1" dy="-4" in="SourceGraphic" result="offset-1"></feOffset><feOffset dx="-0.1" dy="4" in="shadow" result="offset-2"></feOffset><feMerge><feMergeNode in="offset-2"></feMergeNode><feMergeNode in="offset-1"></feMergeNode></feMerge></filter></defs><g filter="url(#editing-hover)"><g transform="translate(-157.92716550827026, 100.59968757629395)"><path d="M17.47 0.90L17.47 0.90Q12.54 0.90 8.13-0.22L8.13-0.22L8.13-0.22Q3.71-1.34 0.77-3.33L0.77-3.33L0.77-14.59L13.57-14.59L13.57-13.95L13.57-13.95Q13.57-10.50 16.90-10.50L16.90-10.50L16.90-10.50Q18.62-10.50 19.49-11.42L19.49-11.42L19.49-11.42Q20.35-12.35 20.35-14.34L20.35-14.34L20.35-39.30L14.59-39.30L14.59-49.79L41.47-49.79L41.47-39.30L38.27-39.30L38.27-17.79L38.27-17.79Q38.27-8.38 32.77-3.74L32.77-3.74L32.77-3.74Q27.26 0.90 17.47 0.90L17.47 0.90ZM62.85 0.90L62.85 0.90Q53.76 0.90 48.64-3.87L48.64-3.87L48.64-3.87Q43.52-8.64 43.52-17.79L43.52-17.79L43.52-17.79Q43.52-26.94 48.64-31.71L48.64-31.71L48.64-31.71Q53.76-36.48 62.85-36.48L62.85-36.48L62.85-36.48Q72.06-36.48 77.12-31.65L77.12-31.65L77.12-31.65Q82.18-26.82 82.18-17.79L82.18-17.79L82.18-17.79Q82.18-8.64 77.06-3.87L77.06-3.87L77.06-3.87Q71.94 0.90 62.85 0.90L62.85 0.90ZM62.85-10.50L62.85-10.50Q64.70-10.50 65.63-11.49L65.63-11.49L65.63-11.49Q66.56-12.48 66.56-14.59L66.56-14.59L66.56-20.99L66.56-20.99Q66.56-23.10 65.63-24.10L65.63-24.10L65.63-24.10Q64.70-25.09 62.85-25.09L62.85-25.09L62.85-25.09Q60.99-25.09 60.06-24.10L60.06-24.10L60.06-24.10Q59.14-23.10 59.14-20.99L59.14-20.99L59.14-14.59L59.14-14.59Q59.14-12.48 60.06-11.49L60.06-11.49L60.06-11.49Q60.99-10.50 62.85-10.50L62.85-10.50ZM100.35-39.10L87.30-39.10L87.30-49.79L100.35-49.79L100.35-39.10ZM104.58 0L84.22 0L84.22-10.50L87.04-10.50L87.04-25.09L84.22-25.09L84.22-35.58L101.76-35.58L101.76-10.50L104.58-10.50L104.58 0ZM146.05-10.50L148.86-10.50L148.86 0L128.64 0L128.64-10.50L131.33-10.50L131.33-20.99L131.33-20.99Q131.33-23.10 130.43-24.10L130.43-24.10L130.43-24.10Q129.54-25.09 127.74-25.09L127.74-25.09L127.74-25.09Q123.90-25.09 123.90-20.99L123.90-20.99L123.90-10.50L126.59-10.50L126.59 0L106.37 0L106.37-10.50L109.18-10.50L109.18-25.09L106.37-25.09L106.37-35.58L123.90-35.58L123.90-30.59L123.90-30.59Q128.51-36.48 135.42-36.48L135.42-36.48L135.42-36.48Q140.74-36.48 143.39-33.15L143.39-33.15L143.39-33.15Q146.05-29.82 146.05-24L146.05-24L146.05-10.50ZM194.30 0.90L194.30 0.90Q182.59 0.90 176.22-5.25L176.22-5.25L176.22-5.25Q169.86-11.39 169.86-24.90L169.86-24.90L169.86-24.90Q169.86-38.40 176.22-44.54L176.22-44.54L176.22-44.54Q182.59-50.69 194.30-50.69L194.30-50.69L194.30-50.69Q206.02-50.69 212.38-44.54L212.38-44.54L212.38-44.54Q218.75-38.40 218.75-24.90L218.75-24.90L218.75-24.90Q218.75-11.39 212.38-5.25L212.38-5.25L212.38-5.25Q206.02 0.90 194.30 0.90L194.30 0.90ZM194.30-10.50L194.30-10.50Q196.48-10.50 197.57-11.65L197.57-11.65L197.57-11.65Q198.66-12.80 198.66-15.23L198.66-15.23L198.66-34.56L198.66-34.56Q198.66-36.99 197.57-38.14L197.57-38.14L197.57-38.14Q196.48-39.30 194.30-39.30L194.30-39.30L194.30-39.30Q192.13-39.30 191.04-38.14L191.04-38.14L191.04-38.14Q189.95-36.99 189.95-34.56L189.95-34.56L189.95-15.23L189.95-15.23Q189.95-12.74 191.04-11.62L191.04-11.62L191.04-11.62Q192.13-10.50 194.30-10.50L194.30-10.50ZM260.10-10.50L262.91-10.50L262.91 0L245.38 0L245.38-4.99L245.38-4.99Q240.77 0.90 233.86 0.90L233.86 0.90L233.86 0.90Q228.54 0.90 225.89-2.43L225.89-2.43L225.89-2.43Q223.23-5.76 223.23-11.58L223.23-11.58L223.23-25.09L220.42-25.09L220.42-35.58L237.95-35.58L237.95-14.59L237.95-14.59Q237.95-12.48 238.88-11.49L238.88-11.49L238.88-11.49Q239.81-10.50 241.66-10.50L241.66-10.50L241.66-10.50Q243.52-10.50 244.45-11.49L244.45-11.49L244.45-11.49Q245.38-12.48 245.38-14.59L245.38-14.59L245.38-25.09L241.92-25.09L241.92-35.58L260.10-35.58L260.10-10.50ZM292.03-36.48L292.03-36.48Q293.31-36.48 294.46-36.22L294.46-36.22L294.46-36.22Q295.62-35.97 296.38-35.58L296.38-35.58L296.38-23.36L296.38-23.36Q293.76-24.45 290.75-24.45L290.75-24.45L290.75-24.45Q286.72-24.45 284.54-22.34L284.54-22.34L284.54-22.34Q282.37-20.22 282.37-16.06L282.37-16.06L282.37-10.50L288.13-10.50L288.13 0L264.83 0L264.83-10.50L267.65-10.50L267.65-25.09L264.83-25.09L264.83-35.58L282.37-35.58L282.37-30.91L282.37-30.91Q284.16-33.60 286.46-35.04L286.46-35.04L286.46-35.04Q288.77-36.48 292.03-36.48L292.03-36.48ZM388.35-49.79L388.35-39.30L385.15-39.30L385.15-10.50L388.35-10.50L388.35 0L364.16 0L364.16-10.50L367.23-10.50L367.23-32.90L356.35 0L346.88 0L335.68-32.58L335.68-10.50L338.75-10.50L338.75 0L317.76 0L317.76-10.50L320.96-10.50L320.96-39.30L317.76-39.30L317.76-49.79L347.07-49.79L353.73-29.82L360.13-49.79L388.35-49.79ZM409.86 0.90L409.86 0.90Q400.77 0.90 395.65-3.87L395.65-3.87L395.65-3.87Q390.53-8.64 390.53-17.79L390.53-17.79L390.53-17.79Q390.53-26.94 395.65-31.71L395.65-31.71L395.65-31.71Q400.77-36.48 409.86-36.48L409.86-36.48L409.86-36.48Q418.88-36.48 422.88-31.78L422.88-31.78L422.88-31.78Q426.88-27.07 426.88-20.10L426.88-20.10L426.88-15.49L406.14-15.49L406.14-15.10L406.14-15.10Q406.14-12.74 407.55-11.62L407.55-11.62L407.55-11.62Q408.96-10.50 412.22-10.50L412.22-10.50L412.22-10.50Q416.13-10.50 419.65-11.07L419.65-11.07L419.65-11.07Q423.17-11.65 425.79-12.54L425.79-12.54L425.79-2.30L425.79-2.30Q423.55-1.09 419.23-0.10L419.23-0.10L419.23-0.10Q414.91 0.90 409.86 0.90L409.86 0.90ZM406.14-22.53L413.57-22.53L413.57-23.30L413.57-23.30Q413.57-25.47 412.64-26.43L412.64-26.43L412.64-26.43Q411.71-27.39 409.86-27.39L409.86-27.39L409.86-27.39Q408-27.39 407.07-26.40L407.07-26.40L407.07-26.40Q406.14-25.41 406.14-23.30L406.14-23.30L406.14-22.53ZM490.62-10.50L493.44-10.50L493.44 0L473.22 0L473.22-10.50L475.90-10.50L475.90-20.99L475.90-20.99Q475.90-23.10 475.01-24.10L475.01-24.10L475.01-24.10Q474.11-25.09 472.32-25.09L472.32-25.09L472.32-25.09Q468.48-25.09 468.48-20.99L468.48-20.99L468.48-10.50L471.17-10.50L471.17 0L451.07 0L451.07-10.50L453.76-10.50L453.76-20.99L453.76-20.99Q453.76-23.10 452.86-24.10L452.86-24.10L452.86-24.10Q451.97-25.09 450.18-25.09L450.18-25.09L450.18-25.09Q446.34-25.09 446.34-20.99L446.34-20.99L446.34-10.50L449.02-10.50L449.02 0L428.80 0L428.80-10.50L431.62-10.50L431.62-25.09L428.80-25.09L428.80-35.58L446.34-35.58L446.34-30.59L446.34-30.59Q450.94-36.48 457.86-36.48L457.86-36.48L457.86-36.48Q461.76-36.48 464.22-34.66L464.22-34.66L464.22-34.66Q466.69-32.83 467.71-29.50L467.71-29.50L467.71-29.50Q470.02-32.83 472.99-34.62L472.99-34.62L472.99-34.62Q475.97-36.42 480-36.42L480-36.42L480-36.42Q485.31-36.42 487.97-33.09L487.97-33.09L487.97-33.09Q490.62-29.76 490.62-23.94L490.62-23.94L490.62-10.50ZM522.94 0.90L522.94 0.90Q519.68 0.90 517.15-0.70L517.15-0.70L517.15-0.70Q514.62-2.30 513.02-4.35L513.02-4.35L513.02 0L495.49 0L495.49-10.50L498.30-10.50L498.30-39.30L495.49-39.30L495.49-49.79L513.02-49.79L513.02-31.23L513.02-31.23Q514.62-33.28 517.15-34.88L517.15-34.88L517.15-34.88Q519.68-36.48 522.94-36.48L522.94-36.48L522.94-36.48Q529.47-36.48 532.77-31.62L532.77-31.62L532.77-31.62Q536.06-26.75 536.06-17.79L536.06-17.79L536.06-17.79Q536.06-8.83 532.77-3.97L532.77-3.97L532.77-3.97Q529.47 0.90 522.94 0.90L522.94 0.90ZM516.74-10.50L516.74-10.50Q518.59-10.50 519.52-11.49L519.52-11.49L519.52-11.49Q520.45-12.48 520.45-14.59L520.45-14.59L520.45-20.99L520.45-20.99Q520.45-23.10 519.52-24.10L519.52-24.10L519.52-24.10Q518.59-25.09 516.74-25.09L516.74-25.09L516.74-25.09Q514.88-25.09 513.95-24.10L513.95-24.10L513.95-24.10Q513.02-23.10 513.02-20.99L513.02-20.99L513.02-14.59L513.02-14.59Q513.02-12.48 513.95-11.49L513.95-11.49L513.95-11.49Q514.88-10.50 516.74-10.50L516.74-10.50ZM556.93 0.90L556.93 0.90Q547.84 0.90 542.72-3.87L542.72-3.87L542.72-3.87Q537.60-8.64 537.60-17.79L537.60-17.79L537.60-17.79Q537.60-26.94 542.72-31.71L542.72-31.71L542.72-31.71Q547.84-36.48 556.93-36.48L556.93-36.48L556.93-36.48Q565.95-36.48 569.95-31.78L569.95-31.78L569.95-31.78Q573.95-27.07 573.95-20.10L573.95-20.10L573.95-15.49L553.22-15.49L553.22-15.10L553.22-15.10Q553.22-12.74 554.62-11.62L554.62-11.62L554.62-11.62Q556.03-10.50 559.30-10.50L559.30-10.50L559.30-10.50Q563.20-10.50 566.72-11.07L566.72-11.07L566.72-11.07Q570.24-11.65 572.86-12.54L572.86-12.54L572.86-2.30L572.86-2.30Q570.62-1.09 566.30-0.10L566.30-0.10L566.30-0.10Q561.98 0.90 556.93 0.90L556.93 0.90ZM553.22-22.53L560.64-22.53L560.64-23.30L560.64-23.30Q560.64-25.47 559.71-26.43L559.71-26.43L559.71-26.43Q558.78-27.39 556.93-27.39L556.93-27.39L556.93-27.39Q555.07-27.39 554.14-26.40L554.14-26.40L554.14-26.40Q553.22-25.41 553.22-23.30L553.22-23.30L553.22-22.53ZM603.20-36.48L603.20-36.48Q604.48-36.48 605.63-36.22L605.63-36.22L605.63-36.22Q606.78-35.97 607.55-35.58L607.55-35.58L607.55-23.36L607.55-23.36Q604.93-24.45 601.92-24.45L601.92-24.45L601.92-24.45Q597.89-24.45 595.71-22.34L595.71-22.34L595.71-22.34Q593.54-20.22 593.54-16.06L593.54-16.06L593.54-10.50L599.30-10.50L599.30 0L576 0L576-10.50L578.82-10.50L578.82-25.09L576-25.09L576-35.58L593.54-35.58L593.54-30.91L593.54-30.91Q595.33-33.60 597.63-35.04L597.63-35.04L597.63-35.04Q599.94-36.48 603.20-36.48L603.20-36.48ZM625.15 0.90L625.15 0.90Q617.09 0.90 609.60-1.66L609.60-1.66L609.60-11.14L619.97-11.14L619.97-10.50L619.97-10.50Q619.97-7.42 623.87-7.42L623.87-7.42L623.87-7.42Q627.33-7.42 627.33-9.79L627.33-9.79L627.33-9.79Q627.33-11.07 626.34-11.71L626.34-11.71L626.34-11.71Q625.34-12.35 622.85-12.80L622.85-12.80L619.65-13.38L619.65-13.38Q609.60-15.17 609.60-24.77L609.60-24.77L609.60-24.77Q609.60-30.34 613.82-33.41L613.82-33.41L613.82-33.41Q618.05-36.48 625.22-36.48L625.22-36.48L625.22-36.48Q633.22-36.48 638.72-33.79L638.72-33.79L638.72-24.90L628.99-24.90L628.99-25.54L628.99-25.54Q628.99-26.82 628.13-27.49L628.13-27.49L628.13-27.49Q627.26-28.16 625.60-28.16L625.60-28.16L625.60-28.16Q622.40-28.16 622.40-26.11L622.40-26.11L622.40-26.11Q622.40-25.02 623.30-24.45L623.30-24.45L623.30-24.45Q624.19-23.87 626.56-23.36L626.56-23.36L630.21-22.66L630.21-22.66Q635.90-21.57 638.34-18.62L638.34-18.62L638.34-18.62Q640.77-15.68 640.77-11.07L640.77-11.07L640.77-11.07Q640.77-5.25 636.70-2.18L636.70-2.18L636.70-2.18Q632.64 0.90 625.15 0.90L625.15 0.90ZM686.98 0.90L686.98 0.90Q674.88 0.90 668.32-5.25L668.32-5.25L668.32-5.25Q661.76-11.39 661.76-24.90L661.76-24.90L661.76-24.90Q661.76-50.69 686.85-50.69L686.85-50.69L686.85-50.69Q692.93-50.69 698.14-49.22L698.14-49.22L698.14-49.22Q703.36-47.74 705.92-45.95L705.92-45.95L705.92-29.95L690.56-29.95L690.56-34.56L690.56-34.56Q690.56-36.99 689.47-38.14L689.47-38.14L689.47-38.14Q688.38-39.30 686.21-39.30L686.21-39.30L686.21-39.30Q684.03-39.30 682.94-38.14L682.94-38.14L682.94-38.14Q681.86-36.99 681.86-34.56L681.86-34.56L681.86-15.23L681.86-15.23Q681.86-12.80 682.94-11.65L682.94-11.65L682.94-11.65Q684.03-10.50 686.21-10.50L686.21-10.50L686.21-10.50Q688.38-10.50 689.47-11.65L689.47-11.65L689.47-11.65Q690.56-12.80 690.56-15.23L690.56-15.23L690.56-20.42L705.92-20.42L705.92-3.84L705.92-3.84Q703.30-2.05 698.14-0.58L698.14-0.58L698.14-0.58Q692.99 0.90 686.98 0.90L686.98 0.90ZM728.58 0.06L708.22 0.06L708.22-10.50L711.04-10.50L711.04-39.30L708.22-39.30L708.22-49.79L725.76-49.79L725.76-10.50L728.58-10.50L728.58 0.06ZM769.92-10.50L772.74-10.50L772.74 0L755.20 0L755.20-4.99L755.20-4.99Q750.59 0.90 743.68 0.90L743.68 0.90L743.68 0.90Q738.37 0.90 735.71-2.43L735.71-2.43L735.71-2.43Q733.06-5.76 733.06-11.58L733.06-11.58L733.06-25.09L730.24-25.09L730.24-35.58L747.78-35.58L747.78-14.59L747.78-14.59Q747.78-12.48 748.70-11.49L748.70-11.49L748.70-11.49Q749.63-10.50 751.49-10.50L751.49-10.50L751.49-10.50Q753.34-10.50 754.27-11.49L754.27-11.49L754.27-11.49Q755.20-12.48 755.20-14.59L755.20-14.59L755.20-25.09L751.74-25.09L751.74-35.58L769.92-35.58L769.92-10.50ZM801.98 0.90L801.98 0.90Q798.72 0.90 796.19-0.70L796.19-0.70L796.19-0.70Q793.66-2.30 792.06-4.35L792.06-4.35L792.06 0L774.53 0L774.53-10.50L777.34-10.50L777.34-39.30L774.53-39.30L774.53-49.79L792.06-49.79L792.06-31.23L792.06-31.23Q793.66-33.28 796.19-34.88L796.19-34.88L796.19-34.88Q798.72-36.48 801.98-36.48L801.98-36.48L801.98-36.48Q808.51-36.48 811.81-31.62L811.81-31.62L811.81-31.62Q815.10-26.75 815.10-17.79L815.10-17.79L815.10-17.79Q815.10-8.83 811.81-3.97L811.81-3.97L811.81-3.97Q808.51 0.90 801.98 0.90L801.98 0.90ZM795.78-10.50L795.78-10.50Q797.63-10.50 798.56-11.49L798.56-11.49L798.56-11.49Q799.49-12.48 799.49-14.59L799.49-14.59L799.49-20.99L799.49-20.99Q799.49-23.10 798.56-24.10L798.56-24.10L798.56-24.10Q797.63-25.09 795.78-25.09L795.78-25.09L795.78-25.09Q793.92-25.09 792.99-24.10L792.99-24.10L792.99-24.10Q792.06-23.10 792.06-20.99L792.06-20.99L792.06-14.59L792.06-14.59Q792.06-12.48 792.99-11.49L792.99-11.49L792.99-11.49Q793.92-10.50 795.78-10.50L795.78-10.50Z" fill="#fc9f3b"></path></g></g><style>text {
  font-size: 64px;
  font-family: Arial Black;
  dominant-baseline: central;
  text-anchor: middle;
}</style></svg>